<svg xmlns="http://www.w3.org/2000/svg" xmlns:xlink="http://www.w3.org/1999/xlink" width="282.5" height="282.5" viewBox="0 0 74.7 74.7"><defs><linearGradient id="b"><stop offset="0" style="stop-color:#fded86;stop-opacity:1"/><stop offset="1" style="stop-color:#fad65e;stop-opacity:1"/></linearGradient><linearGradient id="a"><stop offset="0" style="stop-color:#326562;stop-opacity:1"/><stop offset="1" style="stop-color:#459090;stop-opacity:1"/></linearGradient><linearGradient xlink:href="#a" id="c" gradientUnits="userSpaceOnUse" x1="20.5" y1="196.7" x2="63.2" y2="184.8"/><linearGradient xlink:href="#b" id="d" gradientUnits="userSpaceOnUse" x1="42.7" y1="240.6" x2="65" y2="218.5"/></defs><g style="display:inline"><path style="fill:url(#c);fill-opacity:1;stroke:none;stroke-width:.26458332px;stroke-linecap:butt;stroke-linejoin:miter;stroke-opacity:1" d="M69.8 205.8c-27.2-23-56 8.6-58.5 7.7 8.8-24.2 31.3-42.5 45.8-33.8 6 3.6 11.5 11.4 12.7 26.1z" transform="matrix(-.79502 0 0 .79502 76.3 -132.6)"/><path d="M38.7 213.7c-1.8 29.2 7 42.4 35.8 33.8 4.2-17.7 6.7-20.7 12.1-29a146 146 0 0 1-47.9-4.8z" style="fill:url(#d);fill-opacity:1;stroke:none;stroke-width:.26458332px;stroke-linecap:butt;stroke-linejoin:miter;stroke-opacity:1" transform="matrix(-.79502 0 0 .79502 76.3 -132.6)"/></g></svg>
